<?xml version="1.0" encoding="UTF-8" standalone="no"?>
<!-- Created with Inkscape (http://www.inkscape.org/) -->

<svg
   xmlns:dc="http://purl.org/dc/elements/1.1/"
   xmlns:cc="http://creativecommons.org/ns#"
   xmlns:rdf="http://www.w3.org/1999/02/22-rdf-syntax-ns#"
   xmlns:svg="http://www.w3.org/2000/svg"
   xmlns="http://www.w3.org/2000/svg"
   version="1.1"
   width="669.85748"
   height="449.45001"
   id="svg2"
   xml:space="preserve"><metadata
     id="metadata8"><rdf:RDF><cc:Work
         rdf:about=""><dc:format>image/svg+xml</dc:format><dc:type
           rdf:resource="http://purl.org/dc/dcmitype/StillImage" /><dc:title></dc:title></cc:Work></rdf:RDF></metadata><defs
     id="defs6"><clipPath
       id="clipPath22"><path
         d="m 0,359.56 535.886,0 0,-359.5 L 0,0.06 0,359.56 z"
         id="path24" /></clipPath></defs><g
     transform="matrix(1.25,0,0,-1.25,0,449.45)"
     id="g10"><path
       d="m 60.087,104.434 -27.503,0 -10.881,88.262 22.361,0 5.619,-66.767 0.24,0 32.285,66.767 24.035,0 -46.156,-88.262"
       id="path12"
       style="fill:#231f20;fill-opacity:1;fill-rule:nonzero;stroke:none" /><path
       d="m 126.729,157.858 8.356,0 c 9.31,0 14.799,3.922 14.799,9.991 0,7.08 -5.489,8.218 -13.844,8.218 l -5.729,0 -3.582,-18.209 z m -7.279,-36.734 5.967,0 c 11.219,0 18.738,3.289 18.738,11.887 0,7.715 -5.251,8.851 -15.277,8.851 l -5.37,0 -4.058,-20.738 z m -7.027,71.572 36.149,0 c 8.594,0 23.512,-3.541 23.512,-20.232 0,-11.887 -8.712,-20.738 -21.842,-22.383 l 0,-0.252 c 9.549,-1.518 16.113,-7.336 16.113,-17.07 0,-18.716 -15.157,-28.133 -34.254,-28.386 l -37.104,0.061 17.426,88.262"
       id="path14"
       style="fill:#231f20;fill-opacity:1;fill-rule:nonzero;stroke:none" /><path
       d="m 189.037,192.696 23.167,0 -7.394,-36.037 0.246,0 31.905,36.037 29.693,0 -41.758,-42.867 25.387,-45.395 -26.495,0 -21.196,40.084 -0.247,0 -8.257,-40.084 -23.167,0 18.116,88.262"
       id="path16"
       style="fill:#231f20;fill-opacity:1;fill-rule:nonzero;stroke:none" /><g
       id="g18"><g
         clip-path="url(#clipPath22)"
         id="g20"><path
           d="m 255.345,104.435 46.274,0 c 38.301,39.693 85.08,61.756 139.127,63.826 l 7.699,33.667 c -79.143,-0.124 -149.317,-38.434 -193.1,-97.493 z m -70.087,143.987 c 44.074,19.366 85.341,48.014 117.859,82.307 l -50.664,0 C 198.706,284.182 130.21,254.349 54.835,249.216 c -7.044,-0.48 -14.153,-0.73 -21.311,-0.771 l -7.668,-33.525 425.561,0 7.661,33.502 -273.82,0"
           id="path26"
           style="fill:#c4123f;fill-opacity:1;fill-rule:nonzero;stroke:none" /><path
           d="m 529.839,21.301 -0.024,-0.119 -1.226,-6.061 6.046,0 1.251,6.18 -6.047,0 z m -11.072,14.493 -20.753,0 c 1.239,6.387 6.206,12.095 12.911,12.091 5.655,-0.015 8.022,-3.734 8.041,-9.513 0,-0.783 -0.126,-1.644 -0.199,-2.578 z m -7.842,16.171 C 499.333,51.96 492.311,41.013 492.292,28.993 c 0.015,-9.666 6.461,-14.697 14.853,-14.712 l 0.016,0 c 5.816,0 8.579,1.131 10.675,1.899 l 0.092,0.034 0.376,4.615 -0.228,-0.099 c -2.795,-1.188 -5.989,-2.369 -10.371,-2.369 -6.239,0.013 -10.692,3.843 -10.703,10.632 0,0.926 0.064,1.854 0.191,2.719 l 25.979,0 0.013,0.137 c 0.209,2.236 0.491,4.482 0.491,6.665 0,4.084 -1.057,7.45 -3.189,9.796 -2.132,2.348 -5.332,3.657 -9.562,3.655 z m -24.438,15.843 -11.24,-52.686 4.928,0 11.266,52.805 -4.931,0 -0.023,-0.119 z m -16.238,10e-4 -11.241,-52.688 4.93,0 11.264,52.806 -4.928,0 -0.025,-0.118 z M 434.347,18.36 c -3.514,0.009 -6.781,2.189 -6.781,6.153 0.004,3.849 2.349,5.971 5.477,7.174 3.127,1.198 7.017,1.426 9.985,1.426 1.402,0 2.751,-0.129 4.168,-0.139 -1.017,-7.409 -4.763,-14.618 -12.849,-14.614 z m 6.86,33.605 c -4.231,-0.002 -8.307,-1.337 -10.841,-2.391 l -0.08,-0.035 -0.53,-4.84 0.247,0.121 c 2.373,1.188 6.419,3.065 10.504,3.065 4.838,-0.017 7.463,-2.712 7.48,-7.552 0,-1.399 -0.064,-2.41 -0.191,-3.407 -1.368,0.135 -2.935,0.267 -4.698,0.267 -8.751,-0.012 -20.642,-2.165 -20.663,-12.751 0.011,-5.965 4.767,-10.151 10.371,-10.162 l 0.021,0 c 5.139,0 9.063,1.563 12.061,5.834 -0.287,-1.455 -0.42,-3.115 -0.61,-4.827 l -0.019,-0.165 4.72,0 0.008,0.141 c 0.14,2.439 0.627,5.722 1.326,8.443 l -0.145,0.035 0.148,-0.027 1.89,9.66 c 0.63,2.807 0.912,5.402 0.912,6.819 0,3.737 -1.023,6.688 -3.037,8.7 -2.013,2.013 -4.998,3.072 -8.874,3.072 z m -44.666,8.97 -5.374,-1.866 -0.018,-0.082 -1.655,-7.862 -6.994,0 -1.06,-4.081 7.149,0 -3.39,-15.639 c -0.35,-1.544 -1.614,-7.209 -1.614,-10.324 0.009,-3.932 2.895,-6.794 7.921,-6.8 1.839,0 3.2,0.356 4.545,0.994 l 0.074,0.035 0.461,4.153 -0.253,-0.141 c -1.24,-0.688 -2.398,-0.96 -3.706,-0.96 -2.525,0.017 -3.892,1.443 -3.911,4.189 0,2.287 0.556,4.587 1.047,6.971 l 3.755,17.522 9.167,0 0.982,4.081 -9.315,0 2.189,9.81 z M 354.476,19.201 c -6.49,0.008 -9.356,4.723 -9.371,10.63 0.015,7.801 4.612,18.036 13.151,18.053 6.417,-0.006 9.497,-4.862 9.512,-11.191 -0.002,-8.151 -4.528,-17.475 -13.292,-17.492 z m 17.079,31.815 c -0.664,-2.319 -1.201,-4.636 -1.614,-6.897 -1.274,5.605 -6.109,7.854 -11.613,7.846 -12.011,-0.002 -18.334,-10.815 -18.353,-22.134 0.013,-7.748 4.322,-14.696 12.891,-14.71 4.699,-0.003 8.742,1.63 11.891,5.021 l -0.486,-2.249 C 362.148,9.012 359.522,4.1 349.367,4.079 345.534,4.081 342,4.843 338.527,7.135 L 338.35,7.25 338.3,7.049 337.076,2.446 337.194,2.393 c 4.29,-1.90199 8.031,-2.395014 12.173,-2.393 0.026,0 0.054,0 0.081,0 14.481,-9.92e-4 17.18,6.726 19.806,19.09 l 5.322,24.573 c 0.698,3.077 1.328,5.808 1.678,7.277 l 0.044,0.185 -4.714,0 -0.029,-0.109 z m -40.457,-15.223 -20.75,0 c 1.238,6.388 6.205,12.096 12.91,12.092 5.656,-0.015 8.022,-3.734 8.041,-9.512 0,-0.784 -0.127,-1.646 -0.201,-2.58 z m -7.84,16.171 c -11.591,-0.004 -18.613,-10.95 -18.632,-22.971 0.014,-9.666 6.461,-14.698 14.851,-14.713 5.828,0 8.595,1.13 10.693,1.901 l 0.09,0.034 0.376,4.612 -0.227,-0.098 c -2.795,-1.187 -5.99,-2.367 -10.37,-2.367 -6.24,0.01 -10.692,3.842 -10.703,10.631 0,0.926 0.064,1.854 0.189,2.72 l 25.979,0 0.013,0.136 c 0.211,2.237 0.492,4.481 0.492,6.664 0,4.086 -1.056,7.452 -3.189,9.797 -2.133,2.347 -5.333,3.656 -9.562,3.654 z m -23.47,-0.84 -15.401,-30.73 -3.416,30.73 -5.471,0 -16.727,-30.732 -2.65,30.732 -4.854,0 0.019,-0.165 3.721,-35.837 5.478,0 16.663,30.744 3.624,-30.744 5.615,0 18.708,36.002 -5.309,0 z m -59.548,-15.331 -20.753,0 c 1.24,6.388 6.206,12.096 12.911,12.091 5.655,-0.014 8.021,-3.733 8.04,-9.511 0,-0.785 -0.126,-1.646 -0.198,-2.58 z m -7.842,16.172 c -11.591,-0.004 -18.614,-10.953 -18.633,-22.972 0.015,-9.666 6.461,-14.698 14.852,-14.712 l 0.016,0 c 5.817,0 8.581,1.131 10.677,1.899 l 0.091,0.033 0.376,4.614 -0.228,-0.097 c -2.796,-1.188 -5.99,-2.368 -10.372,-2.368 -6.238,0.01 -10.691,3.843 -10.701,10.631 0,0.927 0.064,1.854 0.19,2.719 l 25.977,0 0.015,0.136 c 0.21,2.238 0.491,4.482 0.491,6.664 0,4.087 -1.058,7.453 -3.191,9.798 -2.131,2.347 -5.331,3.655 -9.56,3.655 z m -41.653,-9.031 -6.042,0 3.645,16.851 4.849,0 c 6.254,-0.021 10.907,-0.535 10.912,-6.641 0.006,-7.507 -7.085,-10.132 -13.364,-10.21 z m 9.932,-12.261 c -0.014,-7.587 -6.667,-11.039 -15.04,-11.051 l -5.973,0 4.134,18.811 8.21,0 c 4.927,-0.017 8.659,-2.387 8.669,-7.76 z m -7.55,33.613 -8.942,0 -0.025,-0.119 -10.541,-49.046 12.507,0 c 11.248,0.016 19.664,6.066 19.682,15.552 0.014,5.528 -2.805,9.14 -8.035,10.07 6.192,0.86 11.467,5.736 11.467,12.611 0,9.581 -8.281,10.922 -16.113,10.932"
           id="path28"
           style="fill:#231f20;fill-opacity:1;fill-rule:nonzero;stroke:none" /></g></g></g></svg>